<?xml version="1.0" encoding="UTF-8"?>
<svg id="Layer_1" xmlns="http://www.w3.org/2000/svg" version="1.1" viewBox="0 0 432 288">
  <!-- Generator: Adobe Illustrator 29.7.1, SVG Export Plug-In . SVG Version: 2.1.1 Build 8)  -->
  <defs>
    <style>
      .st0 {
        fill: #fff;
      }
    </style>
  </defs>
  <path class="st0" d="M59.79,167.28h-9.55v-17.17h-13.45v-8.46h13.45v-5.22c0-4.93-3.25-7.93-8.68-7.93s-8.6,3-8.6,7.93v30.84h-9.55v-30.64c0-4.73,1.81-8.99,5.06-11.99,3.33-3.06,7.95-4.73,13.09-4.73s9.83,1.67,13.16,4.73c3.25,3,5.06,7.26,5.06,11.99v30.64Z"/>
  <path class="st0" d="M111.08,167.28h-22.63v-8.26c7.81-.93,13.02-7.13,13.02-15.45s-6.65-15.45-14.9-15.45-14.97,6.99-14.97,15.45c0,7.79,5.71,14.39,13.02,15.39v8.19c-13.74-1.13-22.63-11.12-22.63-23.58,0-13.19,10.34-23.65,24.59-23.65s24.37,10.33,24.37,23.52c0,6.33-3.04,12.32-7.74,15.99h7.88v7.86Z"/>
  <g>
    <rect class="st0" x="255.82" y="132.77" width="9.55" height="34.51"/>
    <path class="st0" d="M247.71,120.98c-6.36.07-11.64,1.47-15.26,4.46-5.2,4.13-7.45,9.86-7.45,18.72,0,7.4-1.59,10.39-3.98,12.26-2.53,1.93-6.44,2.53-9.83,2.53l-20.61.04c-3.4,0-7.3-.6-9.83-2.53-2.39-1.87-3.98-4.86-3.98-12.26v-7.56c0-4.73-1.81-8.99-5.06-11.99-3.33-3.07-7.95-4.73-13.16-4.73s-9.76,1.66-13.09,4.73c-3.25,3-5.06,7.26-5.06,11.99v14.72c0,5-3.25,8-8.68,8s-8.6-3-8.6-8v-30.44h-9.55v30.31c0,4.73,1.81,8.99,5.06,12.06,3.33,3,7.95,4.66,13.09,4.66s9.84-1.66,13.16-4.66c3.26-3.06,5.06-7.33,5.06-12.06v-14.79c0-4.93,3.26-7.93,8.61-7.93s8.68,3,8.68,7.93v5.22h-13.45v8.46h13.45l.37.03c.67,4.7,2.49,9.36,7.15,12.91,3.9,3,9.26,4.33,15.84,4.26l20.61-.04c6.58.07,11.93-1.27,15.84-4.26,6.65-5.06,7.52-12.39,7.52-18.85,0,0,1.66-10.26,4.12-12.32,1.81-1.46,5.13-2.46,9.04-2.46h28.21l8.5-8.39h-36.71Z"/>
  </g>
  <path class="st0" d="M327,143.97c0,13.46-10.34,24.12-24.51,24.12s-24.58-10.66-24.58-24.12,10.34-24.05,24.58-24.05,24.51,10.66,24.51,24.05M317.38,143.97c0-8.59-6.65-15.72-14.9-15.72s-14.97,7.13-14.97,15.72,6.65,15.79,14.97,15.79,14.9-7.13,14.9-15.79"/>
  <path class="st0" d="M318.3,121.05h19.23c10.49,0,17.21,5.13,17.21,13.79,0,5.26-2.68,8.66-7.01,10.53,3.54,1.87,5.49,5,5.49,9.93v11.99h-9.55v-11.79c0-4.06-2.02-5.93-6.51-5.93h-5.5v-8.19h6.07c1.23,0,7.45-.33,7.45-6.06,0-1.53,0-6.06-7.67-6.06h-9.62l-9.62-8.19Z"/>
  <path class="st0" d="M368.57,152.69c0,4.26,1.81,5.93,6.36,5.93h17.64v8.66h-17.72c-10.34,0-15.84-5.86-15.84-14.72v-16.79c0-8.86,5.5-14.72,15.84-14.72h17.72v8.66h-17.64c-4.56,0-6.36,1.6-6.36,5.86v17.12ZM388.89,148.23h-16.49v-8.19h16.49v8.19Z"/>
  <path class="st0" d="M188.33,138.4c-3.34-.02-6.43-1.5-8.13-3.68-.45-.58-.33-1.41.25-1.86.59-.44,1.42-.33,1.86.25,1.02,1.37,3.53,2.67,6.02,2.64,1.92-.01,3.78-.67,5.3-2.43l.99-1.16,1.02,1.14c1.34,1.5,3.17,2.16,5.15,2.16,2.31,0,4.71-.98,6.15-2.47l1.07-1.11.94,1.22c.99,1.33,3.41,2.56,5.86,2.54,1.97-.01,3.9-.69,5.45-2.5.48-.56,1.32-.63,1.87-.15.56.47.63,1.31.16,1.87-2.08,2.45-4.88,3.45-7.48,3.44-2.71-.02-5.25-.99-7-2.54-1.95,1.5-4.47,2.35-7.02,2.36-2.14,0-4.33-.63-6.11-2.07-1.87,1.66-4.16,2.36-6.3,2.36h-.04Z"/>
  <path class="st0" d="M188.33,146.16c-3.34-.02-6.43-1.5-8.13-3.68-.45-.58-.33-1.41.25-1.86.58-.44,1.42-.33,1.87.25,1.02,1.37,3.53,2.67,6.02,2.64,1.92-.01,3.79-.66,5.3-2.43l.99-1.16,1.02,1.14c1.34,1.5,3.18,2.16,5.15,2.17,2.31,0,4.71-.98,6.15-2.47l1.07-1.11.94,1.22c.99,1.34,3.41,2.56,5.87,2.54,1.97-.01,3.9-.69,5.45-2.5.47-.56,1.31-.63,1.87-.15.56.47.63,1.31.16,1.86-2.07,2.45-4.88,3.45-7.48,3.44-2.71-.02-5.25-.99-7-2.54-1.95,1.5-4.47,2.35-7.02,2.36-2.13,0-4.33-.63-6.11-2.07-1.87,1.65-4.15,2.36-6.29,2.36h-.05"/>
  <path class="st0" d="M188.33,153.93c-3.34-.02-6.43-1.51-8.13-3.68-.45-.58-.34-1.41.25-1.86.58-.44,1.42-.33,1.86.25,1.02,1.37,3.53,2.66,6.02,2.64,1.92-.01,3.79-.66,5.29-2.43l.99-1.16,1.02,1.14c1.34,1.5,3.18,2.16,5.15,2.16,2.31.01,4.71-.98,6.15-2.47l1.08-1.1.94,1.22c.99,1.34,3.41,2.56,5.86,2.54,1.97-.01,3.9-.69,5.45-2.5h0c.48-.56,1.31-.63,1.87-.15.56.47.63,1.31.16,1.87-2.07,2.45-4.88,3.45-7.48,3.44-2.71-.02-5.25-.99-7-2.54-1.95,1.51-4.47,2.35-7.03,2.36-2.13,0-4.33-.63-6.11-2.07-1.87,1.66-4.15,2.36-6.3,2.36h-.04Z"/>
  <path class="st0" d="M396.55,127.46c0-4.2,2.8-5.92,6.05-5.92s5.98,1.73,5.98,5.92-2.77,5.85-6.03,5.85-6-1.65-6-5.85M406.98,127.46c0-3.61-2.02-4.58-4.4-4.58s-4.48.98-4.48,4.58,2.02,4.51,4.43,4.51,4.45-.93,4.45-4.51M399.76,124.47h3.26c1.76,0,2.54.67,2.54,1.91,0,.93-.49,1.42-1.22,1.67.26.13.49.31.65.64l.75,1.49h-2.1l-.7-1.49c-.18-.34-.36-.44-.67-.44h-.49v1.93h-2.02v-5.72ZM402.68,127.1c.59,0,.9-.15.9-.67s-.26-.7-.83-.7h-.98v1.37h.91Z"/>
</svg>