<?xml version="1.0" encoding="UTF-8"?>
<svg id="Layer_1" xmlns="http://www.w3.org/2000/svg" version="1.1" viewBox="0 0 432 288">
  <!-- Generator: Adobe Illustrator 29.8.2, SVG Export Plug-In . SVG Version: 2.1.1 Build 3)  -->
  <defs>
    <style>
      .st0 {
        fill: #fff;
      }
    </style>
  </defs>
  <path class="st0" d="M22.9,158.11c0-15.98,9.46-24.31,26.5-24.31s26.58,8.33,26.58,24.31-9.47,24.23-26.58,24.23-26.5-8.33-26.5-24.23M55.91,158.11c0-8.93-1.51-11.36-6.51-11.36s-6.51,2.42-6.51,11.36,1.51,11.28,6.51,11.28,6.51-2.42,6.51-11.28"/>
  <path class="st0" d="M98.77,194.83h-18.18v-47.32h26.05c11.06,0,17.11,6.21,17.11,16.88s-7.12,17.03-18.17,17.03h-6.81v13.4ZM101.49,170.83c2.58,0,3.41-2.27,3.41-6.36,0-3.56-.91-5.6-3.41-5.6h-2.72v11.97h2.72Z"/>
  <path class="st0" d="M125.64,157.96v-10.45h4.92v-11.06h18.17v11.06h8.33v10.45h-8.33v8.03c0,3.25.83,4.08,3.41,4.08h4.17v11.36h-11.44c-10.22,0-14.31-3.86-14.31-14.84v-8.63h-4.92Z"/>
  <path class="st0" d="M161.23,132.59h19.23v11.97h-19.23v-11.97ZM161.61,147.51h18.48v33.92h-18.48v-33.92Z"/>
  <path class="st0" d="M186.67,134.86h24.91c16.2,0,26.05,6.81,26.05,23.17s-9.92,23.4-26.12,23.4h-24.83v-46.56ZM209.84,168.48c6.28,0,7.72-1.59,7.72-9.92s-1.44-10.76-7.72-10.76h-3.41v20.67h3.41Z"/>
  <path class="st0" d="M240.73,164.31c0-12.41,9.24-17.71,22.57-17.71s22.71,5.3,22.71,17.71-9.54,18.03-22.87,18.03-22.41-5.61-22.41-18.03M267.16,164.47c0-5.3-1.36-6.66-4.01-6.66s-3.56,1.36-3.56,6.66.98,6.74,3.63,6.74c2.5,0,3.94-1.52,3.94-6.74"/>
  <path class="st0" d="M289.8,163.56c0-10.52,5.23-16.13,16.65-16.05h28.17c11.43,0,16.66,5.53,16.66,16.05v17.86h-18.17v-16.81c0-3.86-.83-5-3.56-5h-1.44v21.8h-15.14v-21.8h-1.44c-2.73,0-3.56,1.13-3.56,5v16.81h-18.17v-17.86Z"/>
  <path class="st0" d="M379.14,170.98h16.13v10.45h-19.99c-12.57,0-20.22-4.92-20.22-17.34s7.72-17.49,21.96-17.49,20.67,5.76,20.67,16.36v4.47h-23.85c.53,2.88,1.97,3.55,5.3,3.55M377.4,155.69c-2.35,0-3.48.91-3.71,5.15h7.42c-.23-4.24-1.29-5.15-3.71-5.15"/>
  <path class="st0" d="M106.48,143.93c13.96-25.63,49.11-43.81,90.26-43.81s76.31,18.18,90.27,43.81h25.75c-16.72-29.56-62.1-50.76-115.48-50.76s-98.77,21.2-115.48,50.76h24.68Z"/>
  <path class="st0" d="M408.58,150.01c0,3.08-2.42,5.51-5.58,5.51s-5.61-2.42-5.61-5.51,2.49-5.44,5.61-5.44,5.58,2.42,5.58,5.44ZM398.79,150.01c0,2.42,1.79,4.35,4.25,4.35s4.15-1.93,4.15-4.31-1.76-4.38-4.18-4.38-4.22,1.96-4.22,4.35ZM402.14,152.86h-1.26v-5.44c.5-.1,1.19-.17,2.09-.17,1.03,0,1.49.17,1.89.4.3.23.53.66.53,1.19,0,.6-.46,1.06-1.13,1.26v.07c.53.2.83.6.99,1.33.17.83.27,1.16.4,1.36h-1.36c-.17-.2-.27-.7-.43-1.33-.1-.6-.43-.86-1.13-.86h-.6v2.19ZM402.17,149.78h.6c.7,0,1.26-.23,1.26-.8,0-.5-.37-.83-1.16-.83-.33,0-.56.03-.7.07v1.56Z"/>
</svg>