<?xml version="1.0" encoding="UTF-8"?>
<svg id="Layer_1" xmlns="http://www.w3.org/2000/svg" version="1.1" viewBox="0 0 432 288">
  <!-- Generator: Adobe Illustrator 29.8.2, SVG Export Plug-In . SVG Version: 2.1.1 Build 3)  -->
  <defs>
    <style>
      .st0 {
        fill: #fff;
      }
    </style>
  </defs>
  <polygon class="st0" points="23.42 99.19 23.42 109.77 51.85 109.77 51.85 188.81 63.26 188.81 63.26 109.77 91.8 109.77 91.8 99.19 23.42 99.19"/>
  <path class="st0" d="M117.55,167.9l10.63,1.31c-1.68,6.21-4.78,11.03-9.31,14.45-4.53,3.43-10.32,5.14-17.37,5.14-8.88,0-15.91-2.73-21.11-8.2-5.2-5.47-7.8-13.13-7.8-23s2.63-18.13,7.89-23.77c5.25-5.63,12.07-8.46,20.45-8.46s14.74,2.77,19.88,8.29c5.14,5.52,7.71,13.29,7.71,23.31,0,.61-.02,1.52-.05,2.74h-45.25c.38,6.67,2.27,11.77,5.66,15.31,3.39,3.54,7.61,5.31,12.68,5.31,3.77,0,6.99-.99,9.65-2.97,2.67-1.98,4.78-5.14,6.34-9.48M83.79,151.28h33.88c-.46-5.11-1.75-8.93-3.88-11.49-3.27-3.96-7.52-5.94-12.74-5.94-4.72,0-8.7,1.58-11.91,4.74-3.22,3.16-5,7.39-5.34,12.69"/>
  <path class="st0" d="M176.82,165.21l10.11,1.32c-1.11,6.97-3.93,12.42-8.49,16.37-4.55,3.94-10.14,5.91-16.77,5.91-8.3,0-14.98-2.71-20.03-8.14-5.05-5.43-7.57-13.2-7.57-23.34,0-6.55,1.09-12.28,3.26-17.2,2.17-4.91,5.47-8.6,9.91-11.05,4.44-2.46,9.27-3.68,14.48-3.68,6.59,0,11.98,1.67,16.17,5s6.87,8.07,8.05,14.2l-10,1.54c-.95-4.07-2.64-7.14-5.06-9.2-2.42-2.06-5.34-3.09-8.77-3.09-5.18,0-9.39,1.86-12.63,5.57-3.24,3.71-4.85,9.59-4.85,17.62s1.56,14.08,4.68,17.77c3.12,3.69,7.2,5.54,12.23,5.54,4.04,0,7.41-1.23,10.11-3.71,2.7-2.48,4.42-6.29,5.14-11.43"/>
  <polygon class="st0" points="199.14 188.81 199.14 109.77 170.72 109.77 170.72 99.19 239.1 99.19 239.1 109.77 210.56 109.77 210.56 188.81 199.14 188.81"/>
  <path class="st0" d="M262.91,179.96c-3.81,3.24-7.47,5.52-11,6.86-3.52,1.33-7.31,2-11.34,2-6.67,0-11.79-1.63-15.37-4.88-3.58-3.26-5.37-7.42-5.37-12.48,0-2.97.68-5.69,2.03-8.14,1.35-2.46,3.12-4.43,5.31-5.91,2.19-1.48,4.66-2.6,7.4-3.37,2.02-.53,5.06-1.05,9.14-1.54,8.3-.99,14.42-2.17,18.34-3.54.04-1.41.05-2.31.05-2.69,0-4.19-.97-7.14-2.91-8.86-2.63-2.32-6.54-3.48-11.72-3.48-4.84,0-8.41.85-10.71,2.54-2.31,1.7-4.01,4.69-5.11,9l-10.06-1.37c.91-4.31,2.42-7.78,4.51-10.43,2.09-2.65,5.12-4.69,9.08-6.11,3.96-1.43,8.55-2.14,13.77-2.14s9.39.61,12.63,1.83c3.24,1.22,5.62,2.75,7.14,4.6,1.52,1.85,2.59,4.18,3.2,7,.34,1.75.52,4.92.52,9.48v13.71c0,9.56.22,15.6.66,18.14.44,2.53,1.3,4.96,2.6,7.28h-10.74c-1.07-2.13-1.76-4.63-2.06-7.48M262.05,156.99c-3.73,1.52-9.33,2.82-16.8,3.88-4.23.61-7.22,1.3-8.97,2.06-1.75.76-3.11,1.88-4.06,3.34-.95,1.47-1.43,3.1-1.43,4.89,0,2.74,1.04,5.03,3.11,6.86,2.08,1.83,5.11,2.74,9.12,2.74s7.48-.87,10.57-2.6c3.08-1.73,5.35-4.1,6.8-7.12,1.1-2.32,1.66-5.75,1.66-10.28v-3.77Z"/>
  <path class="st0" d="M283.24,188.81v-60.67h9.26v8.62c4.46-6.66,10.89-10,19.31-10,3.66,0,7.02.66,10.09,1.97,3.06,1.32,5.36,3.04,6.88,5.17,1.52,2.13,2.59,4.67,3.2,7.6.38,1.9.57,5.24.57,10v37.31h-10.29v-36.91c0-4.19-.4-7.32-1.2-9.4-.8-2.07-2.22-3.73-4.26-4.97-2.03-1.24-4.42-1.86-7.17-1.86-4.38,0-8.16,1.39-11.34,4.17-3.18,2.78-4.77,8.05-4.77,15.82v33.14h-10.28Z"/>
  <polygon class="st0" points="339.95 188.81 339.95 105.05 350.23 105.05 350.23 152.82 374.57 128.14 387.89 128.14 364.69 150.65 390.23 188.81 377.54 188.81 357.49 157.79 350.23 164.76 350.23 188.81 339.95 188.81"/>
  <path class="st0" d="M398.54,128.85v1.3h-2.51v6.55h-1.56v-6.55h-2.51v-1.3h6.58ZM407.02,136.7l-.29-4.62c-.03-.61-.03-1.36-.06-2.19h-.09c-.2.69-.43,1.61-.66,2.34l-1.41,4.36h-1.62l-1.41-4.47c-.15-.61-.38-1.53-.55-2.22h-.09c0,.72-.03,1.47-.06,2.19l-.29,4.62h-1.5l.58-7.85h2.34l1.36,3.84c.17.61.32,1.18.52,1.99h.03c.2-.72.37-1.38.55-1.96l1.36-3.87h2.25l.61,7.85h-1.56Z"/>
</svg>